<svg xmlns="http://www.w3.org/2000/svg" version="1.0" width="736.000000pt" height="487.000000pt" viewBox="0 0 736.000000 487.000000" preserveAspectRatio="xMidYMid meet">

<g transform="translate(0.000000,487.000000) scale(0.100000,-0.100000)" fill="#FE4365" stroke="none">
<path d="M0 3323 c0 -850 2 -1544 4 -1542 2 2 28 63 59 134 30 72 103 232 161 356 120 260 195 434 227 533 l23 70 -30 55 c-31 58 -33 85 -9 95 51 19 246 36 385 34 l155 -3 13 -27 c35 -74 43 -161 51 -583 7 -346 12 -429 26 -473 9 -29 23 -56 32 -59 9 -4 39 -2 67 4 42 9 52 8 59 -4 7 -11 15 -5 37 25 32 45 75 78 112 87 23 6 34 0 71 -40 25 -26 59 -73 77 -106 33 -62 52 -71 74 -36 16 25 -17 81 -120 208 -102 125 -144 204 -144 268 1 121 97 206 262 232 190 29 328 -44 328 -173 0 -40 -37 -121 -74 -166 l-28 -32 35 -53 c57 -87 71 -160 44 -234 -37 -99 -172 -189 -302 -199 -129 -11 -301 32 -350 86 -16 17 -18 17 -58 -6 -60 -35 -187 -73 -265 -80 -85 -8 -141 7 -180 48 -47 47 -63 106 -69 251 -6 125 -6 127 -30 133 -38 10 -246 -2 -270 -14 -15 -9 -36 -59 -83 -202 -42 -129 -68 -194 -81 -200 -29 -16 -111 -11 -158 10 -24 11 -45 20 -47 20 -2 0 -4 -391 -4 -870 l0 -870 3680 0 3680 0 0 2435 0 2435 -3680 0 -3680 0 0 -1547z m4565 1446 c281 -14 265 -7 319 -134 68 -164 115 -413 136 -720 15 -225 30 -734 30 -1027 l0 -248 -27 -6 c-46 -9 -116 -35 -152 -56 l-34 -19 -28 30 c-20 23 -39 32 -76 37 l-50 6 0 97 c0 108 -16 159 -58 187 -41 27 -198 11 -370 -37 -102 -29 -115 -48 -115 -157 l0 -88 -54 -10 c-39 -7 -61 -6 -82 3 -16 7 -57 12 -90 13 l-62 0 -5 548 c-5 544 -14 692 -48 835 -10 44 -13 47 -42 47 -18 0 -37 -4 -44 -8 -6 -4 -30 -59 -53 -122 -88 -240 -264 -697 -388 -1004 -112 -280 -131 -320 -152 -327 -14 -3 -44 -12 -68 -18 -37 -10 -46 -18 -60 -52 l-17 -40 -18 33 c-23 41 -67 77 -115 94 -44 16 -170 18 -208 4 -15 -6 -28 -9 -29 -8 -2 2 5 47 16 101 10 54 23 134 29 177 8 58 26 113 71 217 164 371 333 829 350 948 10 68 10 74 -20 152 -31 79 -88 178 -138 237 -22 26 -24 36 -19 78 13 94 7 90 173 126 486 106 922 138 1498 111z m-1999 -1706 c9 -59 -9 -203 -47 -385 -16 -79 -33 -158 -36 -176 l-6 -34 62 31 c170 86 298 75 350 -31 31 -65 27 -135 -19 -334 -22 -95 -40 -190 -40 -210 0 -40 -9 -38 88 -18 26 5 29 3 43 -44 l16 -49 -51 -31 c-103 -61 -255 -102 -330 -88 -42 8 -94 49 -108 85 -19 51 -10 167 27 322 38 165 44 226 21 235 -8 3 -34 -3 -58 -14 l-44 -19 -27 -124 c-36 -167 -57 -302 -57 -371 0 -45 -3 -58 -17 -62 -53 -15 -182 -37 -257 -42 l-86 -7 0 66 c0 82 22 200 110 582 84 360 110 511 110 627 0 74 3 87 18 92 78 22 205 42 279 45 l52 1 7 -47z m4266 2 c4 -22 3 -83 -3 -135 -10 -87 -71 -407 -85 -444 -8 -21 -8 -21 72 18 137 67 237 70 305 9 72 -65 74 -134 15 -388 -20 -82 -36 -170 -36 -194 l0 -43 38 7 c69 14 74 13 89 -30 7 -22 11 -45 8 -53 -7 -19 -161 -89 -236 -107 -87 -20 -132 -19 -179 5 -87 44 -96 146 -37 402 53 228 50 248 -36 210 l-45 -20 -21 -89 c-34 -144 -61 -320 -61 -393 l0 -68 -67 -16 c-82 -20 -193 -36 -249 -36 -37 0 -42 3 -47 26 -11 57 22 242 99 569 93 388 129 602 122 706 l-4 58 74 17 c106 24 170 32 227 30 l50 -1 7 -40z m-2240 -275 c8 -41 -4 -198 -18 -242 -5 -16 3 -18 82 -18 l87 0 -6 -42 c-2 -24 -10 -56 -16 -72 l-11 -28 -83 3 -82 4 -37 -170 c-41 -184 -58 -328 -40 -339 6 -3 34 2 62 13 l51 19 21 -43 c12 -23 19 -49 16 -56 -8 -20 -104 -76 -174 -101 -40 -14 -84 -22 -139 -22 -103 -1 -150 21 -183 85 -32 60 -26 125 33 371 25 106 48 203 51 216 4 22 3 22 -66 16 l-71 -7 3 74 3 74 78 3 77 3 0 124 0 124 53 14 c103 30 198 45 262 43 39 -1 40 -2 47 -46z m793 -252 c40 -18 77 -85 89 -161 l11 -69 35 6 c19 3 45 6 58 6 17 0 22 6 22 25 0 65 61 139 147 177 24 10 81 24 127 30 71 10 94 9 152 -5 86 -21 113 -40 143 -101 22 -44 23 -52 12 -101 -7 -31 -29 -77 -53 -111 -32 -46 -38 -61 -29 -74 39 -54 71 -121 77 -159 21 -137 -109 -273 -290 -304 -80 -14 -218 1 -287 31 -66 29 -119 78 -119 111 0 55 98 173 156 187 21 5 33 -1 70 -37 24 -24 59 -71 76 -106 34 -65 46 -73 71 -48 28 28 0 79 -125 233 -38 46 -75 97 -84 114 -12 24 -20 29 -37 23 -12 -3 -48 -13 -79 -22 l-57 -15 -12 -52 c-27 -116 -120 -268 -205 -337 -22 -18 -64 -43 -94 -58 -47 -22 -68 -26 -150 -26 -119 1 -180 25 -244 96 -56 62 -77 121 -83 234 -13 227 106 434 289 502 46 17 261 34 341 26 26 -2 59 -9 72 -15z m-1418 -55 c-4 -38 -28 -179 -53 -315 -26 -136 -44 -254 -40 -263 5 -13 13 -15 38 -9 62 14 70 11 85 -31 7 -22 11 -45 8 -53 -3 -7 -42 -31 -88 -52 -183 -86 -324 -91 -373 -13 -10 15 -19 30 -21 32 -1 2 -31 -10 -65 -27 -162 -79 -312 -81 -378 -6 -56 64 -53 139 15 413 29 114 44 193 40 209 -3 14 -19 44 -36 68 -30 45 -35 59 -20 68 21 13 219 36 310 36 l100 0 6 -53 c8 -61 -4 -134 -49 -312 -52 -200 -58 -233 -45 -257 9 -17 18 -20 56 -15 25 2 49 9 53 13 17 18 92 389 106 526 6 64 8 68 38 78 40 13 161 27 250 29 l69 1 -6 -67z m-942 -97 c15 -22 14 -27 -10 -77 -14 -30 -23 -43 -20 -29 2 14 5 49 5 78 0 28 2 52 5 52 2 0 12 -11 20 -24z m1065 -106 c0 -9 -58 -255 -65 -277 -2 -6 -13 -9 -24 -6 -27 7 -27 22 4 173 14 68 25 124 25 125 0 1 14 0 30 -3 17 -2 30 -8 30 -12z m525 -31 l-15 -44 6 40 c6 41 13 59 20 52 2 -2 -3 -23 -11 -48z m-22 -146 c-4 -69 -9 -93 -19 -93 -8 0 -14 6 -14 13 0 15 33 177 36 174 1 -1 0 -44 -3 -94z m-1618 -55 c-9 -42 -13 -48 -31 -48 -11 0 -14 6 -9 23 4 12 9 30 11 40 3 9 12 17 20 17 12 0 14 -7 9 -32z m1741 -339 c64 -68 171 -109 285 -109 55 0 57 -1 63 -31 3 -17 6 -57 6 -88 0 -69 25 -288 45 -396 31 -162 86 -279 146 -310 44 -23 103 -18 262 24 l148 40 11 -27 c5 -15 18 -49 28 -77 10 -27 36 -101 59 -162 l40 -113 -85 -59 c-99 -69 -305 -173 -445 -225 -432 -162 -824 -198 -1087 -102 -188 69 -310 251 -379 569 -12 56 -16 161 -20 474 -4 348 -7 402 -20 407 -8 4 -108 11 -221 17 -298 17 -633 -6 -816 -54 l-48 -13 -49 -129 c-71 -187 -216 -619 -307 -917 -44 -142 -87 -269 -96 -282 -45 -69 -144 -106 -284 -106 -169 0 -347 59 -510 168 -10 7 2 46 52 173 96 245 299 712 505 1160 l30 66 73 7 c116 11 271 45 299 66 l26 19 34 -35 c84 -86 261 -80 463 17 l60 28 42 -39 c84 -77 228 -90 387 -35 l77 26 25 -19 c84 -67 278 -46 466 48 l60 31 32 -34 c75 -79 189 -104 331 -72 77 17 223 82 246 110 18 22 33 19 66 -16z" fill="#FE4365"/>
<path d="M5941 2421 c-28 -28 -27 -40 7 -87 51 -70 57 -71 91 -23 33 45 40 89 16 109 -8 6 -32 14 -53 17 -32 4 -44 1 -61 -16z" fill="#FE4365"/>
<path d="M5111 2368 c-62 -101 -90 -384 -45 -445 21 -29 57 -39 99 -29 52 13 148 143 169 228 5 24 3 28 -19 33 -14 3 -36 7 -50 10 -38 8 -93 62 -105 103 -5 20 -10 58 -10 85 0 55 -13 60 -39 15z" fill="#FE4365"/>
<path d="M653 2848 c-5 -7 -19 -40 -31 -73 -12 -33 -59 -154 -106 -270 l-84 -210 120 -3 c67 -1 123 0 127 4 3 3 6 127 6 274 0 265 -5 312 -32 278z" fill="#FE4365"/>
<path d="M1677 2425 c-30 -30 -19 -71 36 -132 20 -22 21 -22 40 -6 44 40 61 109 32 133 -25 21 -89 24 -108 5z" fill="#FE4365"/>
</g>
</svg>